# xmcd
#
# Track frame offsets: 
#        150
#        16934
#        29983
#        43592
#        57773
#        69915
#        81154
#        90420
#        106784
#        119288
#        137045
#        149299
#        166310
#        183169
#        198451
#        213365
#        230621
#
# Disc length: 3285 seconds
#
# Revision: 0
# Processed by: cddbd v1.4PL0 Copyright (c) Steve Scherf et al.
# Submitted via: ExactAudioCopy v0.90a11
#
DISCID=e50cd311
DTITLE=Disc1 von 2 - Country Collection
DYEAR=1900
DGENRE=
TTITLE0=Carpenters - Jambalaya (On the Bayou)
TTITLE1=Kenny Rogers - Ruby don't take your love to town
TTITLE2=Linda Ronstadt - I will always love you
TTITLE3=Elvis Costello - Good year for the roses
TTITLE4=Charlie Rich - Most beautiful girl
TTITLE5=Roger Miller - King of the road
TTITLE6=Frankie Laine - Rawhide
TTITLE7=The Charlie Daniels Band - The devil went down to Georgia
TTITLE8=Nancy Sinatra - These boots are made for walking
TTITLE9=Tanya Tucker - The best of my love
TTITLE10=George Jones and Tammy Wynette - Crying time
TTITLE11=J.D.Souther - You're only lonely
TTITLE12=Tumbleweeds - Me and Bobby McGee
TTITLE13=Grant and Forsyth - Somewhere between
TTITLE14=Piet Veerman - Together again
TTITLE15=Gordon Lightfood - If you could read my mind
TTITLE16=The Judds - Why not me?
EXTD=
EXTT0=
EXTT1=
EXTT2=
EXTT3=
EXTT4=
EXTT5=
EXTT6=
EXTT7=
EXTT8=
EXTT9=
EXTT10=
EXTT11=
EXTT12=
EXTT13=
EXTT14=
EXTT15=
EXTT16=
PLAYORDER=
